<svg width="316" height="130" viewBox="0 0 316 130" fill="none" xmlns="http://www.w3.org/2000/svg">
<g filter="url(#filter0_dd_9_168)">
<g filter="url(#filter1_d_9_168)">
<circle cx="65" cy="49" r="25" fill="#ECEDEF"/>
</g>
</g>
<path d="M110.97 44.528V49.424H116.73V51.656H110.97V56.768H117.45V59H108.234V42.296H117.45V44.528H110.97ZM126.484 52.304L130.756 59H127.66L124.804 54.512L122.116 59H119.26L123.532 52.496L119.26 45.776H122.356L125.212 50.264L127.9 45.776H130.756L126.484 52.304ZM135.532 47.72C135.996 47.112 136.628 46.6 137.428 46.184C138.228 45.768 139.132 45.56 140.14 45.56C141.292 45.56 142.34 45.848 143.284 46.424C144.244 46.984 144.996 47.776 145.54 48.8C146.084 49.824 146.356 51 146.356 52.328C146.356 53.656 146.084 54.848 145.54 55.904C144.996 56.944 144.244 57.76 143.284 58.352C142.34 58.928 141.292 59.216 140.14 59.216C139.132 59.216 138.236 59.016 137.452 58.616C136.668 58.2 136.028 57.688 135.532 57.08V65.288H132.796V45.776H135.532V47.72ZM143.572 52.328C143.572 51.416 143.38 50.632 142.996 49.976C142.628 49.304 142.132 48.8 141.508 48.464C140.9 48.112 140.244 47.936 139.54 47.936C138.852 47.936 138.196 48.112 137.572 48.464C136.964 48.816 136.468 49.328 136.084 50C135.716 50.672 135.532 51.464 135.532 52.376C135.532 53.288 135.716 54.088 136.084 54.776C136.468 55.448 136.964 55.96 137.572 56.312C138.196 56.664 138.852 56.84 139.54 56.84C140.244 56.84 140.9 56.664 141.508 56.312C142.132 55.944 142.628 55.416 142.996 54.728C143.38 54.04 143.572 53.24 143.572 52.328ZM161.182 52.064C161.182 52.56 161.15 53.008 161.086 53.408H150.982C151.062 54.464 151.454 55.312 152.158 55.952C152.862 56.592 153.726 56.912 154.75 56.912C156.222 56.912 157.262 56.296 157.87 55.064H160.822C160.422 56.28 159.694 57.28 158.638 58.064C157.598 58.832 156.302 59.216 154.75 59.216C153.486 59.216 152.35 58.936 151.342 58.376C150.35 57.8 149.566 57 148.99 55.976C148.43 54.936 148.15 53.736 148.15 52.376C148.15 51.016 148.422 49.824 148.966 48.8C149.526 47.76 150.302 46.96 151.294 46.4C152.302 45.84 153.454 45.56 154.75 45.56C155.998 45.56 157.11 45.832 158.086 46.376C159.062 46.92 159.822 47.688 160.366 48.68C160.91 49.656 161.182 50.784 161.182 52.064ZM158.326 51.2C158.31 50.192 157.95 49.384 157.246 48.776C156.542 48.168 155.67 47.864 154.63 47.864C153.686 47.864 152.878 48.168 152.206 48.776C151.534 49.368 151.134 50.176 151.006 51.2H158.326ZM166.61 47.696C167.01 47.024 167.538 46.504 168.194 46.136C168.866 45.752 169.658 45.56 170.57 45.56V48.392H169.874C168.802 48.392 167.986 48.664 167.426 49.208C166.882 49.752 166.61 50.696 166.61 52.04V59H163.874V45.776H166.61V47.696ZM176.277 48.008V55.328C176.277 55.824 176.389 56.184 176.613 56.408C176.853 56.616 177.253 56.72 177.813 56.72H179.493V59H177.333C176.101 59 175.157 58.712 174.501 58.136C173.845 57.56 173.517 56.624 173.517 55.328V48.008H171.957V45.776H173.517V42.488H176.277V45.776H179.493V48.008H176.277ZM190.985 42.32V59H188.249V42.32H190.985ZM201.249 45.56C202.289 45.56 203.217 45.776 204.033 46.208C204.865 46.64 205.513 47.28 205.977 48.128C206.441 48.976 206.673 50 206.673 51.2V59H203.961V51.608C203.961 50.424 203.665 49.52 203.073 48.896C202.481 48.256 201.673 47.936 200.649 47.936C199.625 47.936 198.809 48.256 198.201 48.896C197.609 49.52 197.313 50.424 197.313 51.608V59H194.577V45.776H197.313V47.288C197.761 46.744 198.329 46.32 199.017 46.016C199.721 45.712 200.465 45.56 201.249 45.56ZM214.963 59.216C213.923 59.216 212.987 59.032 212.155 58.664C211.339 58.28 210.691 57.768 210.211 57.128C209.731 56.472 209.475 55.744 209.443 54.944H212.275C212.323 55.504 212.587 55.976 213.067 56.36C213.563 56.728 214.179 56.912 214.915 56.912C215.683 56.912 216.275 56.768 216.691 56.48C217.123 56.176 217.339 55.792 217.339 55.328C217.339 54.832 217.099 54.464 216.619 54.224C216.155 53.984 215.411 53.72 214.387 53.432C213.395 53.16 212.587 52.896 211.963 52.64C211.339 52.384 210.795 51.992 210.331 51.464C209.883 50.936 209.659 50.24 209.659 49.376C209.659 48.672 209.867 48.032 210.283 47.456C210.699 46.864 211.291 46.4 212.059 46.064C212.843 45.728 213.739 45.56 214.747 45.56C216.251 45.56 217.459 45.944 218.371 46.712C219.299 47.464 219.795 48.496 219.859 49.808H217.123C217.075 49.216 216.835 48.744 216.403 48.392C215.971 48.04 215.387 47.864 214.651 47.864C213.931 47.864 213.379 48 212.995 48.272C212.611 48.544 212.419 48.904 212.419 49.352C212.419 49.704 212.547 50 212.803 50.24C213.059 50.48 213.371 50.672 213.739 50.816C214.107 50.944 214.651 51.112 215.371 51.32C216.331 51.576 217.115 51.84 217.723 52.112C218.347 52.368 218.883 52.752 219.331 53.264C219.779 53.776 220.011 54.456 220.027 55.304C220.027 56.056 219.819 56.728 219.403 57.32C218.987 57.912 218.395 58.376 217.627 58.712C216.875 59.048 215.987 59.216 214.963 59.216ZM226.176 48.008V55.328C226.176 55.824 226.288 56.184 226.512 56.408C226.752 56.616 227.152 56.72 227.712 56.72H229.392V59H227.232C226 59 225.056 58.712 224.4 58.136C223.744 57.56 223.416 56.624 223.416 55.328V48.008H221.856V45.776H223.416V42.488H226.176V45.776H229.392V48.008H226.176ZM234.649 47.696C235.049 47.024 235.577 46.504 236.233 46.136C236.905 45.752 237.697 45.56 238.609 45.56V48.392H237.913C236.841 48.392 236.025 48.664 235.465 49.208C234.921 49.752 234.649 50.696 234.649 52.04V59H231.913V45.776H234.649V47.696ZM253.1 45.776V59H250.364V57.44C249.932 57.984 249.364 58.416 248.66 58.736C247.972 59.04 247.236 59.192 246.452 59.192C245.412 59.192 244.476 58.976 243.644 58.544C242.828 58.112 242.18 57.472 241.7 56.624C241.236 55.776 241.004 54.752 241.004 53.552V45.776H243.716V53.144C243.716 54.328 244.012 55.24 244.604 55.88C245.196 56.504 246.004 56.816 247.028 56.816C248.052 56.816 248.86 56.504 249.452 55.88C250.06 55.24 250.364 54.328 250.364 53.144V45.776H253.1ZM255.798 52.376C255.798 51.016 256.07 49.824 256.614 48.8C257.174 47.76 257.942 46.96 258.918 46.4C259.894 45.84 261.014 45.56 262.278 45.56C263.878 45.56 265.198 45.944 266.238 46.712C267.294 47.464 268.006 48.544 268.374 49.952H265.422C265.182 49.296 264.798 48.784 264.27 48.416C263.742 48.048 263.078 47.864 262.278 47.864C261.158 47.864 260.262 48.264 259.59 49.064C258.934 49.848 258.606 50.952 258.606 52.376C258.606 53.8 258.934 54.912 259.59 55.712C260.262 56.512 261.158 56.912 262.278 56.912C263.862 56.912 264.91 56.216 265.422 54.824H268.374C267.99 56.168 267.27 57.24 266.214 58.04C265.158 58.824 263.846 59.216 262.278 59.216C261.014 59.216 259.894 58.936 258.918 58.376C257.942 57.8 257.174 57 256.614 55.976C256.07 54.936 255.798 53.736 255.798 52.376ZM274.293 48.008V55.328C274.293 55.824 274.405 56.184 274.629 56.408C274.869 56.616 275.269 56.72 275.829 56.72H277.509V59H275.349C274.117 59 273.173 58.712 272.517 58.136C271.861 57.56 271.533 56.624 271.533 55.328V48.008H269.973V45.776H271.533V42.488H274.293V45.776H277.509V48.008H274.293ZM285.766 59.216C284.518 59.216 283.39 58.936 282.382 58.376C281.374 57.8 280.582 57 280.006 55.976C279.43 54.936 279.142 53.736 279.142 52.376C279.142 51.032 279.438 49.84 280.03 48.8C280.622 47.76 281.43 46.96 282.454 46.4C283.478 45.84 284.622 45.56 285.886 45.56C287.15 45.56 288.294 45.84 289.318 46.4C290.342 46.96 291.15 47.76 291.742 48.8C292.334 49.84 292.63 51.032 292.63 52.376C292.63 53.72 292.326 54.912 291.718 55.952C291.11 56.992 290.278 57.8 289.222 58.376C288.182 58.936 287.03 59.216 285.766 59.216ZM285.766 56.84C286.47 56.84 287.126 56.672 287.734 56.336C288.358 56 288.862 55.496 289.246 54.824C289.63 54.152 289.822 53.336 289.822 52.376C289.822 51.416 289.638 50.608 289.27 49.952C288.902 49.28 288.414 48.776 287.806 48.44C287.198 48.104 286.542 47.936 285.838 47.936C285.134 47.936 284.478 48.104 283.87 48.44C283.278 48.776 282.806 49.28 282.454 49.952C282.102 50.608 281.926 51.416 281.926 52.376C281.926 53.8 282.286 54.904 283.006 55.688C283.742 56.456 284.662 56.84 285.766 56.84ZM298.071 47.696C298.471 47.024 298.999 46.504 299.655 46.136C300.327 45.752 301.119 45.56 302.031 45.56V48.392H301.335C300.263 48.392 299.447 48.664 298.887 49.208C298.343 49.752 298.071 50.696 298.071 52.04V59H295.335V45.776H298.071V47.696ZM309.346 59.216C308.306 59.216 307.37 59.032 306.538 58.664C305.722 58.28 305.074 57.768 304.594 57.128C304.114 56.472 303.858 55.744 303.826 54.944H306.658C306.706 55.504 306.97 55.976 307.45 56.36C307.946 56.728 308.562 56.912 309.298 56.912C310.066 56.912 310.658 56.768 311.074 56.48C311.506 56.176 311.722 55.792 311.722 55.328C311.722 54.832 311.482 54.464 311.002 54.224C310.538 53.984 309.794 53.72 308.77 53.432C307.778 53.16 306.97 52.896 306.346 52.64C305.722 52.384 305.178 51.992 304.714 51.464C304.266 50.936 304.042 50.24 304.042 49.376C304.042 48.672 304.25 48.032 304.666 47.456C305.082 46.864 305.674 46.4 306.442 46.064C307.226 45.728 308.122 45.56 309.13 45.56C310.634 45.56 311.842 45.944 312.754 46.712C313.682 47.464 314.178 48.496 314.242 49.808H311.506C311.458 49.216 311.218 48.744 310.786 48.392C310.354 48.04 309.77 47.864 309.034 47.864C308.314 47.864 307.762 48 307.378 48.272C306.994 48.544 306.802 48.904 306.802 49.352C306.802 49.704 306.93 50 307.186 50.24C307.442 50.48 307.754 50.672 308.122 50.816C308.49 50.944 309.034 51.112 309.754 51.32C310.714 51.576 311.498 51.84 312.106 52.112C312.73 52.368 313.266 52.752 313.714 53.264C314.162 53.776 314.394 54.456 314.41 55.304C314.41 56.056 314.202 56.728 313.786 57.32C313.37 57.912 312.778 58.376 312.01 58.712C311.258 59.048 310.37 59.216 309.346 59.216Z" fill="#545454"/>
<path d="M64.75 49C67.5117 49 69.75 46.7617 69.75 44C69.75 41.2383 67.5117 39 64.75 39C61.9883 39 59.75 41.2383 59.75 44C59.75 46.7617 61.9883 49 64.75 49ZM68.25 50.25H67.5977C66.7305 50.6484 65.7656 50.875 64.75 50.875C63.7344 50.875 62.7734 50.6484 61.9023 50.25H61.25C58.3516 50.25 56 52.6016 56 55.5V57.125C56 58.1602 56.8398 59 57.875 59H71.625C72.6602 59 73.5 58.1602 73.5 57.125V55.5C73.5 52.6016 71.1484 50.25 68.25 50.25ZM80.8672 45.2344L79.7812 44.1367C79.6016 43.9531 79.3086 43.9531 79.125 44.1328L75.0312 48.1953L73.2539 46.4062C73.0742 46.2227 72.7812 46.2227 72.5977 46.4023L71.5 47.4922C71.3164 47.6719 71.3164 47.9648 71.4961 48.1484L74.6875 51.3633C74.8672 51.5469 75.1602 51.5469 75.3438 51.3672L80.8633 45.8906C81.043 45.707 81.0469 45.4141 80.8672 45.2344Z" fill="black"/>
<defs>
<filter id="filter0_dd_9_168" x="36" y="21" width="58" height="58" filterUnits="userSpaceOnUse" color-interpolation-filters="sRGB">
<feFlood flood-opacity="0" result="BackgroundImageFix"/>
<feColorMatrix in="SourceAlpha" type="matrix" values="0 0 0 0 0 0 0 0 0 0 0 0 0 0 0 0 0 0 127 0" result="hardAlpha"/>
<feOffset dy="1"/>
<feGaussianBlur stdDeviation="2"/>
<feComposite in2="hardAlpha" operator="out"/>
<feColorMatrix type="matrix" values="0 0 0 0 0.0470588 0 0 0 0 0.0470588 0 0 0 0 0.0509804 0 0 0 0.05 0"/>
<feBlend mode="normal" in2="BackgroundImageFix" result="effect1_dropShadow_9_168"/>
<feColorMatrix in="SourceAlpha" type="matrix" values="0 0 0 0 0 0 0 0 0 0 0 0 0 0 0 0 0 0 127 0" result="hardAlpha"/>
<feOffset dy="1"/>
<feGaussianBlur stdDeviation="2"/>
<feComposite in2="hardAlpha" operator="out"/>
<feColorMatrix type="matrix" values="0 0 0 0 0.0470588 0 0 0 0 0.0470588 0 0 0 0 0.0509804 0 0 0 0.1 0"/>
<feBlend mode="normal" in2="effect1_dropShadow_9_168" result="effect2_dropShadow_9_168"/>
<feBlend mode="normal" in="SourceGraphic" in2="effect2_dropShadow_9_168" result="shape"/>
</filter>
<filter id="filter1_d_9_168" x="0" y="0" width="130" height="130" filterUnits="userSpaceOnUse" color-interpolation-filters="sRGB">
<feFlood flood-opacity="0" result="BackgroundImageFix"/>
<feColorMatrix in="SourceAlpha" type="matrix" values="0 0 0 0 0 0 0 0 0 0 0 0 0 0 0 0 0 0 127 0" result="hardAlpha"/>
<feOffset dy="16"/>
<feGaussianBlur stdDeviation="20"/>
<feColorMatrix type="matrix" values="0 0 0 0 0.146118 0 0 0 0 0.172389 0 0 0 0 0.441667 0 0 0 0.1 0"/>
<feBlend mode="normal" in2="BackgroundImageFix" result="effect1_dropShadow_9_168"/>
<feBlend mode="normal" in="SourceGraphic" in2="effect1_dropShadow_9_168" result="shape"/>
</filter>
</defs>
</svg>
